<svg version="1.2" xmlns="http://www.w3.org/2000/svg" viewBox="0 379.99999999999994 2754 784" width="1000" height="285.039941902687">
	<style>
		.s0 { fill: #ffffff } 
	</style>
	<g>
		<path class="s0" d="m374.53 471.91c-11.03 7.85-47.88 30.49-64.26 39.58-47.89 26.39-95.88 46.3-135.69 56.3-16.15 3.98-44.36 8.53-53.23 8.53h-4.89l-1.02 7.62c-1.48 12.17-1.03 79.85 0.57 95.88 4.55 44.02 12.96 85.76 24.11 119.43 9.89 29.8 27.98 70.51 40.6 91.1 24.57 40.26 37.42 57.1 64.95 84.85 32.75 33.09 72.45 60.96 122.03 85.75l13.42 6.83 15.13-7.62c23.09-11.49 38.67-20.36 55.51-31.51 71.08-47.08 119.53-105.2 154.56-185.05l4.78-10.8 12.74-8.08c7.05-4.43 23.09-14.67 35.83-22.74 12.62-8.08 31.73-20.02 42.3-26.5 17.41-10.58 21.5-13.77 18.32-13.77-0.57 0-5.58-2.73-11.15-6.14-5.46-3.3-20.02-11.83-32.19-18.88-31.16-18.08-102.93-59.94-127.38-74.27-5.35-3.07-11.49-6.59-13.65-7.85-2.16-1.25-6.82-3.98-10.24-6.02-23.77-14.11-44.35-26.16-54.59-31.85-11.6-6.48-50.04-28.66-55.73-32.3-1.59-0.91-4.32-2.5-6.26-3.53-1.82-1.02-6.37-3.52-9.89-5.57-3.64-2.05-6.6-3.41-6.6-3.07 0 0.45 2.62 5.8 5.69 12.06 6.82 13.53 20.7 44.47 20.24 44.92-0.22 0.12-3.52 0.8-7.39 1.48-8.87 1.48-15.35 5.57-18.99 11.94l-2.96 5.01v39.92c0 21.95 0.34 40.6 0.68 41.63 0.8 2.16 7.85 2.5 14.33 0.68 3.87-1.14 12.29-8.87 12.29-11.38 0-2.27-3.64-6.82-5.46-6.82-2.62 0-8.19-5.69-8.19-8.53 0-3.64 3.07-7.17 6.94-7.96 5.11-1.14 8.98 2.73 8.98 9.1 0 3.3 1.03 6.37 3.53 10.35 6.71 10.8 15.12 15.92 26.95 16.6l7.28 0.34 2.73-6.71c3.41-8.41 4.21-9.32 10.92-12.73 10.69-5.35 13.76-2.28 3.3 3.29-6.03 3.3-7.28 5.12-10.24 14.56-0.68 2.16-1.25 5.01-1.25 6.26 0 1.25-0.79 3.3-1.7 4.77-1.71 2.28-1.6 3.08 1.7 10.13 4.44 9.78 7.62 12.85 13.31 12.96 5.23 0.12 11.94 2.39 12.62 4.32 0.34 1.03-1.25 1.26-6.71 0.69-3.98-0.46-7.84-0.91-8.64-1.14-0.68-0.23-3.19 0.11-5.46 0.91-3.98 1.14-4.44 1.02-6.94-1.82-1.93-2.27-2.5-3.98-2.05-6.71 1.37-8.19-6.93-22.18-14.55-24.57-2.39-0.79-5.24-1.36-6.49-1.36-1.25 0-5.46-2.62-9.32-5.69l-7.17-5.69-5.12 5.01c-6.59 6.37-15.81 10.23-21.95 9.21l-4.43-0.8 0.34 8.88 0.34 8.98 4.09 0.68c4.33 0.69 12.4 5.12 12.4 6.83 0 0.57 0.68 1.02 1.59 1.02 0.8 0 2.16 0.68 2.85 1.59 0.79 0.91 2.27 1.37 3.41 1.03 1.14-0.34 2.5 0 2.84 0.68 0.46 0.68 3.3 1.25 6.26 1.25 5.91 0 8.3 1.71 10.35 7.51 0.68 1.82 3.3 4.77 5.68 6.71 7.28 5.57 11.15 11.83 12.4 20.02 0.68 3.98 1.25 7.73 1.25 8.3 0 0.57 3.07 0.68 6.94 0.34 13.99-1.25 23.32-10.69 26.05-26.16 0.79-4.66 1.13-8.98 0.68-9.67-0.34-0.68 1.48-3.41 4.21-6.14 2.61-2.73 5.46-7.05 6.25-9.55 2.05-6.26 2.96-24 1.48-30.03-0.57-2.84-0.8-5.46-0.34-5.91 0.45-0.34 3.87 1.13 7.62 3.29 14.79 8.88 26.96 15.93 46.06 26.73 10.92 6.14 20.59 11.95 21.39 12.74 1.13 1.14-0.46 2.62-9.1 7.74-5.8 3.41-23.32 14.1-39.01 23.77-15.59 9.55-35.04 21.38-43.22 26.16-19.45 11.71-20.36 12.39-24.91 21.26-2.05 4.21-14.67 28.32-27.98 53.69-32.76 62.1-36.74 70.06-36.28 71.31 0.22 0.68 7.84-3.53 16.94-9.33 9.1-5.8 37.76-23.77 63.7-40.03 25.93-16.15 48.56-30.37 50.38-31.51 5-3.41 3.64-0.22-5.12 11.6-17.29 23.43-45.61 53.01-65.74 68.59-8.3 6.48-32.3 22.97-41.06 28.32-5.57 3.3-29.8 17.06-30.25 17.06-0.57 0-20.59-11.72-32.19-18.77-28.43-17.51-55.84-39.46-75.4-60.39-3.53-3.76-6.49-7.28-6.49-7.62 0-0.46 24.34-0.8 54.03-0.8h54.02l7.96-15.69c7.51-14.68 20.48-39.24 29.92-56.19 2.27-4.21 4.2-7.85 4.2-8.07 0-0.35-2.5-0.8-5.46-1.03-7.84-0.79-17.51-5.57-24.56-12.28l-6.14-5.8-4.89 5.23c-3.08 3.3-7.97 6.71-13.43 9.44-8.07 3.98-9.32 4.21-19.56 4.21-10.23 0-11.37-0.23-18.76-3.98-5.81-2.96-9.1-5.69-13.2-10.81-5.34-6.59-5.68-6.82-12.51-7.73-3.75-0.46-9.67-2.28-13.08-3.87-6.25-3.07-17.4-13.87-17.4-16.83 0-0.8-0.57-1.71-1.14-1.94-1.59-0.45-4.55-11.71-4.55-16.94 0-3.19-1.02-5.12-4.55-8.87-2.5-2.62-5.8-7.28-7.39-10.35-2.73-5.35-2.84-6.6-2.84-24.23v-18.65l4.43-6.83c2.39-3.75 5.01-7.28 5.69-7.62 0.68-0.45 1.25-4.43 1.25-9.66 0-14.22 4.66-24.12 15.24-32.08 4.21-3.18 6.14-5.68 8.19-10.69 4.55-11.26 14.22-19.56 25.7-22.06 5.35-1.14 7.06-2.17 10.35-6.26 6.03-7.28 16.27-12.28 26.62-12.97 11.6-0.79 22.75 2.85 30.25 9.79l5.35 5.11v-51.4c0-34.13 0.34-51.3 1.14-51.3 0.68 0 3.07 1.25 5.46 2.73 9.44 5.91 43.1 24.57 64.71 35.6 38.79 19.9 61.53 29.57 99.29 41.97 12.86 4.21 42.65 11.83 46.41 11.83 1.36 0 2.73 0.45 3.07 1.13 0.34 0.57 0.11 12.51-0.57 26.39-1.37 29.69-3.07 25.59 15.24 35.83 6.26 3.41 15.24 8.64 19.9 11.37 4.55 2.73 8.53 4.89 8.76 4.66 0.12-0.22 1.14-9.09 2.05-19.9 1.82-19.9 2.27-72.11 0.91-91.33l-0.8-9.67-9.66-0.68c-36.63-2.62-81.1-15.7-130.8-38.33-31.05-14.1-69.27-34.92-100.66-54.82-16.49-10.46-24-14.79-25.25-14.79-0.45 0.12-3.18 1.71-5.91 3.64zm-114.99 119.09c0 0.68-0.45 1.36-1.02 1.82-4.55 2.73-51.87 84.73-71.88 124.65-5.69 11.26-10.58 20.36-11.04 20.36-2.04 0-7.16-24.79-10.57-50.61-1.82-14.22-2.51-25.71-2.62-43.68l-0.11-24.45 3.41-0.8c1.93-0.45 7.51-1.7 12.51-2.73 21.5-4.66 49.47-13.3 67.79-20.92 11.48-4.67 13.53-5.24 13.53-3.64zm172.88 62.78c1.02 1.82 0.91 2.96-0.68 5.34-1.14 1.71-2.28 4.89-2.62 7.06-0.57 3.18-1.48 4.43-5 6.02-3.98 2.05-4.44 2.05-7.05 0.34-5.35-3.52-2.85-14.33 3.41-14.33 1.36 0 3.86-1.59 5.68-3.41 3.87-4.09 4.67-4.21 6.26-1.02zm18.2 36.05c0 1.37-0.8 2.85-1.82 3.3-4.67 1.82-8.87-6.25-5.23-10.24 1.82-2.04 1.93-2.04 4.43 1.14 1.48 1.71 2.62 4.32 2.62 5.8z"/>
		<path class="s0" d="m341.2 628.98c-7.05 2.05-10.23 4.33-12.73 9.1l-2.17 3.98 7.85 7.51c4.32 4.09 8.65 7.51 9.78 7.51 2.39 0 6.6 5.23 6.6 8.19 0 2.5-2.05 6.82-3.87 7.96-4.43 3.07-10.92-2.39-10.92-9.1 0-12.17-16.83-21.73-28.77-16.38-5.69 2.5-12.17 10.24-12.17 14.56 0 3.87-2.05 8.42-3.75 8.42-2.73 0-11.72 7.62-14.45 12.16-2.84 4.67-4.32 16.38-2.96 23.43 1.82 9.56 15.47 19.23 26.73 18.88 6.71-0.22 8.99 1.26 9.44 6.15 0.23 2.73 0.91 3.75 2.96 3.98 1.82 0.22 3.3 2.16 5.35 6.37 1.59 3.29 2.84 7.05 2.84 8.3 0 1.25 0.79 2.96 1.7 3.75 4.21 3.53 0.8 8.99-6.02 9.78-5.35 0.57-5.8 0-2.62-3.41 4.21-4.55 3.53-9.32-2.27-15.81-4.33-5-4.78-5.23-9.33-4.66-5.12 0.68-8.08-1.14-8.99-5.8-0.22-1.48-2.73-3.53-6.93-5.57-3.64-1.82-8.99-5.58-11.83-8.42l-5.35-5.12-3.75 4.1-3.75 4.2v16.5c0 19.1 0.79 21.95 8.53 30.25 5.34 5.69 5.8 6.94 6.71 17.17 1.25 15.02 13.76 25.94 27.52 24 4.66-0.57 5-0.91 5-4.32 0-1.93 0.8-6.26 1.82-9.67 2.17-7.5 11.72-17.97 19.57-21.61 2.95-1.36 6.82-3.52 8.53-4.77 2.5-1.82 4.43-2.17 7.96-1.71 4.32 0.45 5.46 0.11 11.6-4.44 3.75-2.84 8.53-6.14 10.58-7.39l3.64-2.39v-10.69-10.69h-4.32c-6.03 0-11.15 1.71-15.13 5-1.94 1.6-4.89 2.96-6.6 2.96-4.32 0-9.21-5-9.21-9.32 0-2.51-1.71-5.01-7.74-11.04-7.62-7.5-9.55-8.64-20.35-11.48-6.83-1.71-8.31-3.64-8.31-10.58 0-4.55-0.57-6.37-2.73-8.65-1.47-1.7-3.07-4.55-3.52-6.59-0.57-3.07-0.23-4.21 2.16-6.6 8.19-8.19 19.22 3.07 12.05 12.28-3.52 4.44-2.95 9.1 1.71 13.08 3.41 3.07 10.01 5.92 13.65 5.92 0.68 0 1.71-1.14 2.27-2.5 2.28-5.12 11.95-8.19 11.95-3.76 0 1.59-6.26 7.4-8.08 7.4-1.59 0-1.25 2.95 0.68 4.54 0.91 0.8 1.71 2.39 1.71 3.53 0 1.25 0.68 2.16 1.59 2.16 0.8 0 2.39 1.37 3.53 2.96 1.59 2.5 2.5 2.84 5.8 2.27 2.96-0.57 5-0.11 8.64 2.05l4.89 2.84 6.14-2.16c9.33-3.41 9.22-3.07 9.22-18.54 0-13.19-0.12-13.76-2.96-16.26-1.59-1.48-3.64-2.73-4.55-2.73-0.91 0-3.41-0.8-5.57-1.71-3.98-1.59-3.98-1.59-8.31 2.73-2.27 2.39-4.89 5.24-5.68 6.26-2.28 2.73-4.1 1.71-4.55-2.62-1.03-9.78 13.87-14.78 25.48-8.64 2.95 1.59 5.57 2.84 5.68 2.84 1.14 0 0.34-42.08-0.79-45.95-2.96-10.92-17.86-17.63-30.83-13.99zm-60.5 131.14c2.5 1.03 8.07 2.05 12.39 2.39 14.11 0.8 16.15 2.16 9.67 6.94-4.32 3.3-7.51 3.18-10.69-0.34-1.48-1.6-3.87-2.85-5.46-2.85-3.18 0-10.01-2.04-11.6-3.52-0.91-0.8-0.23-4.44 0.8-4.44 0.34 0 2.5 0.8 4.89 1.82z"/>
		<path class="s0" d="m388.97 780.59c-0.34 32.65 0 35.04 7.51 43.34 10.12 11.26 27.64 12.62 40.15 3.07 11.14-8.53 12.17-27.87 1.93-39.01-3.41-3.98-4.78-4.55-10.69-5.23-5.46-0.69-7.28-1.37-9.1-3.64-1.25-1.6-2.27-3.87-2.27-4.89 0-1.14-1.48-2.62-3.64-3.53-2.05-0.8-6.37-3.19-9.67-5.23-3.18-2.16-7.73-4.21-9.9-4.55l-4.09-0.68z"/>
		<path class="s0" d="m364.18 767.63c-6.83 4.55-8.65 6.37-9.33 9.21-0.34 1.93-1.93 4.66-3.52 5.92-1.48 1.25-3.64 4.89-4.67 8.18-1.82 5.46-1.82 6.15-0.11 8.76 1.48 2.28 1.59 3.53 0.57 7.28-1.71 6.37-7.05 7.96-11.49 3.53-2.62-2.62-2.27-6.49 1.14-11.26 1.02-1.6 2.84-5.58 3.98-8.99 1.93-6.03 1.93-6.14-0.46-8.64-2.16-2.28-2.84-2.39-6.02-1.25-4.33 1.48-14.11 11.03-15.7 15.35-4.09 10.58-3.07 20.13 3.07 28.21 9.55 12.62 33.44 12.96 45.04 0.68 5.91-6.26 6.48-9.33 6.6-36.74 0.11-13.87 0-25.36-0.23-25.59-0.23-0.11-4.21 2.28-8.87 5.35z"/>
		<path class="s0" d="m868.09 538.79c0 0.35-12.25 37.27-27.34 82.19-14.91 44.91-36.92 110.77-48.64 146.45-11.72 35.68-22.01 66.22-22.55 67.81-1.24 3.02 1.07 3.2 33.91 3.2h35.33l5.86-19.17c3.19-10.48 7.98-25.57 10.47-33.73l4.79-14.56 53.08 0.36 53.08 0.53 11.01 32.84 10.82 32.84 35.15 0.53c37.82 0.54 36.57 0.89 33.38-9.4-2.67-8.53-95.51-283.68-96.93-287.23-1.24-2.84-5.15-3.02-46.33-3.02-24.85 0-45.09 0.18-45.09 0.36zm47.57 65.68c0.89 4.26 5.51 19.52 9.94 34.26 4.62 14.56 9.95 32.13 11.9 39.05 1.95 6.75 5.15 17.22 6.92 23.08 2.13 6.57 2.66 11.01 1.6 11.72-2.84 1.59-64.44 1.77-66.93 0.17-1.77-1.24-0.88-5.5 3.73-20.06 3.2-10.11 11.01-35.85 17.22-56.98 6.39-21.3 12.07-38.7 12.78-38.7 0.54 0 1.96 3.37 2.84 7.46z"/>
		<path class="s0" d="m1097.09 688.43v150.01h32.84 32.84v-53.26-53.25h25.74 25.56l3.56 7.99c5.68 12.78 25.03 53.07 36.56 76.33l10.66 21.3 35.14 0.53c27.34 0.36 34.98 0 34.98-1.77 0-1.24-11.9-26.27-26.63-55.57-23.79-47.93-26.28-53.43-23.61-55.56 1.6-1.06 4.26-2.13 5.86-2.13 4.97 0 19.17-10.3 24.67-17.75 9.23-12.61 11.54-28.58 11.54-74.56 0-36.92-0.18-40.83-4.08-52.72-5.33-16.51-12.96-25.39-28.23-32.84l-11.89-5.86-92.67-0.53-92.84-0.54zm157.99-89.64c4.44 3.37 4.44 3.37 4.44 34.61v31.42l-5.86 5.15-5.68 5.15h-42.6-42.61v-39.94-39.95h44.03c40.47 0 44.2 0.36 48.28 3.56z"/>
		<path class="s0" d="m1384.32 539.67c-0.36 0.89-0.36 68.35 0 150.01l0.53 148.76h32.66 32.84v-34.44-34.62l21.48-27.69c11.9-15.27 22.37-27.34 23.26-27.16 1.06 0.35 7.63 11.54 14.56 24.68 6.92 13.13 21.83 40.82 33.01 61.59l20.42 37.64h35.86c27.69 0 36.03-0.53 36.03-2.31-0.17-2.31-13.84-28.93-31.77-61.6-17.58-31.77-20.77-37.81-39.23-72.78-9.59-18.11-18.82-35.33-20.6-38.35l-3.19-5.5 8.7-11.36c37.81-49.88 49.88-65.68 65.32-85.03l17.58-22.19-37.81-0.53c-34.26-0.36-38.17-0.18-40.83 2.66-1.6 1.77-23.61 30.89-49 64.62-25.21 33.72-47.57 63.72-49.7 66.57l-3.91 5.14v-69.76l-0.18-69.59h-32.66c-18.11 0-33.02 0.53-33.37 1.24z"/>
		<path class="s0" d="m1672.61 687.9l0.53 149.65 32.49 0.53 32.31 0.36v-62.13c0-48.47 0.53-62.14 2.3-62.14 21.48-0.53 106.87 0.36 107.58 1.07 0.53 0.53 0.89 28.58 0.53 62.13l-0.53 61.07 33.37-0.36 33.38-0.53 0.53-149.65 0.36-149.47h-33.73-33.91l0.18 58.05 0.18 58.23h-54.68-54.68v-58.05-58.23h-33.37-33.2z"/>
		<path class="s0" d="m1977.59 538.79c0 0.35 0 67.63 0 149.64v149.12l103.85 0.53 103.85 0.36v-23.79c0-12.96 0.53-26.27 1.06-29.29l1.07-5.5-71.54-0.36-71.72-0.53v-32.84-32.84h56.45 56.27v-28.94-28.76h-56.8-56.81l0.35-29.82 0.54-29.65h14.2c7.81 0 39.59-0.17 70.65-0.53l56.28-0.35v-28.41-28.4h-103.85c-57.16 0-103.85 0.18-103.85 0.36z"/>
		<path class="s0" d="m2237.12 687.9l0.53 149.65 32.49 0.53 32.31 0.36 0.18-15.45c0.71-40.12 0.88-274.8 0.17-279.41l-0.71-5.15h-32.66-32.66z"/>
		<path class="s0" d="m2366.36 538.79c-0.18 7.63-0.18 126.74 0 200.59v99.06h31.95 31.95v-94.09c0-51.83 0.71-94.08 1.42-94.08 0.89 0 4.44 4.61 7.81 10.12 3.38 5.68 16.87 27.51 30 48.46 13.32 20.95 35.86 57.34 50.42 80.77 14.56 23.43 27.52 44.03 28.94 45.62 2.3 2.84 6.39 3.2 34.44 3.2h31.59v-150.01-150l-31.95 0.36-32.13 0.53 0.18 90.89c0 59.11-0.54 91.07-1.78 91.07-0.89 0-3.02-2.67-4.61-5.86-1.6-3.02-11.19-18.82-21.13-34.97-10.12-16.16-26.8-42.96-36.92-59.47-10.3-16.69-26.1-41.9-35.33-56.45l-16.33-26.1h-34.26c-18.82 0-34.26 0.18-34.26 0.36z"/>
		<path class="s0" d="m772.23 919.39v6.39l11.18-0.36c6.04-0.17 12.07-0.35 13.32-0.17 1.59 0.17 2.13 8.69 2.13 36.74v36.39l5.5-0.53 5.5-0.53-0.35-35.86-0.18-35.86 12.96-0.53 12.96-0.53v-5.33-5.33l-31.42-0.53-31.6-0.35z"/>
		<path class="s0" d="m853.89 955.78v42.6l6.74-0.53 6.57-0.53-0.53-18.29-0.53-18.1h19.52c14.56 0 19.71 0.53 19.89 2.13 0.17 1.24 0.35 9.41 0.53 18.28l0.18 15.98 5.85 0.53 5.68 0.53v-42.6-42.78h-6.21-6.21v17.75 17.75h-18.46c-15.09 0-18.64-0.53-19.53-2.84-0.53-1.6-1.07-9.59-1.07-17.75v-14.91h-6.21-6.21z"/>
		<path class="s0" d="m944.24 952.94c-0.17 22.01-0.35 41.01-0.53 42.07-0.18 1.78 6.75 2.49 27.87 2.84l28.05 0.53-0.53-5.85-0.53-5.86h-21.31-21.3v-12.43-12.43l16.87-0.53c9.23-0.35 17.57-1.24 18.46-2.13 0.88-0.89 1.06-3.55 0.35-6.21-1.24-4.62-1.24-4.62-16.86-4.26-8.7 0.18-16.33-0.18-17.22-0.71-0.89-0.53-1.6-6.04-1.6-12.25v-11.18l21.3-0.18h21.31v-5.33-5.15l-26.99-0.53-27.16-0.53z"/>
		<path class="s0" d="m1075.61 917.79c-3.91 10.3-12.78 35.86-19.35 55.21-3.55 11-7.1 20.59-7.81 21.12-2.66 2.67-0.53 4.09 5.68 4.09 6.92 0 6.92 0 10.12-10.65l3.19-10.66h18.11 18.11l3.19 10.66 3.2 10.65h7.1c5.86 0 6.74-0.54 5.68-3.2-1.07-2.66-17.93-49.88-25.56-72.25-3.2-8.88-3.2-8.88-11.36-9.41-7.82-0.53-8.53-0.18-10.3 4.44zm14.38 21.3c2.13 6.75 4.97 14.38 6.39 17.04 4.44 8.17 2.31 10.12-10.65 10.12-6.39 0-11.9-0.71-12.43-1.59-1.24-1.96 9.76-37.46 11.54-37.46 0.71 0 3.02 5.32 5.15 11.89z"/>
		<path class="s0" d="m1141.47 955.6v42.61h6.21 6.22v-15.63c0-8.69 0.35-16.15 0.71-16.5 0.53-0.54 5.14-0.36 10.29 0.17l9.41 0.89 8.7 15.44c8.16 14.92 8.87 15.63 14.56 15.63 6.03 0 7.81-2.67 4.43-6.39-1.59-1.78-14.38-25.03-14.38-26.28 0-0.35 1.6-1.06 3.38-1.59 6.57-1.6 10.83-11.54 10.83-24.86 0-12.96-1.78-18.1-7.82-22.9-3.19-2.66-7.63-3.19-28.04-3.19h-24.5zm47.93-17.22c0 6.39-0.89 12.07-2.13 13.31-1.42 1.42-7.99 2.13-17.75 2.13h-15.62v-14.2-14.02l14.73-0.54c20.06-0.71 20.77-0.17 20.77 13.32z"/>
		<path class="s0" d="m1229.34 917.26l-5.32 4.26-0.54 32.84-0.53 32.66 4.62 5.68 4.79 5.51h20.95c19.35 0 21.48-0.36 25.56-4.09 3.19-2.84 4.61-6.39 5.5-14.2l1.07-10.12h-6.22c-6.21 0-6.39 0.18-6.39 7.1 0 8.88-3.01 10.66-18.99 10.66-18.82 0-18.46 0.53-17.93-32.67l0.53-28.4 5.86-1.42c3.37-0.89 11.36-0.89 17.75-0.18l11.9 1.42 0.53 7.46c0.53 7.45 0.71 7.63 6.92 7.63h6.39l-1.06-9.23c-0.71-5.15-2.67-11.36-4.44-13.85-3.2-4.26-4.26-4.44-24.5-4.97-20.06-0.35-21.48-0.18-26.45 3.91z"/>
		<path class="s0" d="m1307.98 914.24c0 0.71-0.35 20.06-0.35 42.78l-0.18 41.36 6.21-0.53 6.22-0.53-0.54-18.29-0.35-18.1h20.41 20.6l-0.18 12.78c-0.53 25.21-0.71 24.5 5.32 24.5h5.33v-42.61-42.6h-6.21-6.22l1.07 17.75 1.24 17.93-20.24-0.53-20.23-0.54-0.18-16.86-0.36-16.87-5.5-0.53c-3.02-0.35-5.68 0-5.86 0.89z"/>
		<path class="s0" d="m1397.1 955.6v42.61h6.21 6.21v-42.61-42.6h-6.21-6.21z"/>
		<path class="s0" d="m1427.28 918.32v5.15l12.95 0.53 12.79 0.54 0.53 36.74 0.35 36.93h6.22 6.21l0.36-36.75 0.53-36.75 12.07 0.54 11.89 0.35v-6.21-6.39h-31.95-31.95z"/>
		<path class="s0" d="m1510.71 955.6v42.61h27.69 27.52l-0.53-5.51-0.54-5.68-20.59 0.36-20.59 0.35-1.07-12.07c-0.53-6.57-0.53-12.6 0-13.31 0.36-0.89 8.7-1.42 18.47-1.42h17.75l-0.53-5.86-0.54-5.68-16.86-0.18h-16.87l-1.06-10.47c-0.71-5.86-0.89-11.54-0.36-12.78 0.71-1.6 6.39-2.13 22.02-1.78l21.12 0.36v-5.86-5.68h-27.51-27.52z"/>
		<path class="s0" d="m1590.59 916.55c-4.43 3.37-4.43 3.37-4.97 37.99l-0.53 34.79 4.44 4.44c4.26 4.26 5.32 4.44 25.56 4.44 20.06 0 21.48-0.18 25.92-4.44 3.37-3.2 4.62-6.21 4.97-11.54 0-3.91 0.18-8.17 0.36-9.41 0.17-1.24-2.13-2.13-6.04-2.13-5.86 0-6.21 0.36-5.86 5.33 0.71 8.69-3.19 11-18.82 11.36-9.58 0.18-14.37-0.36-15.79-1.95-1.96-2.49-3.56-54.68-1.6-57.7 0.71-1.06 7.63-2.48 15.62-3.02 17.22-1.59 21.12 0.54 21.12 11.72 0 6.21 0.36 6.75 5.15 6.75 4.09 0 5.33-0.89 6.04-5.15 1.42-6.75-1.24-15.62-6.22-20.95-3.55-3.91-5.14-4.08-24.32-4.08-17.57 0-21.3 0.53-25.03 3.55z"/>
		<path class="s0" d="m1659.83 918.86v5.68l13.31-0.54 13.31-0.71v37.46 37.46h6.22 6.21v-36.4-36.39h12.43 12.42v-6.21-6.21h-31.95-31.95z"/>
		<path class="s0" d="m1781.78 917.26c-2.48 2.31-5.14 6.21-5.68 8.7-0.71 2.3-0.89 17.57-0.53 33.9l0.53 29.83 4.97 4.26c4.62 4.08 6.22 4.26 26.63 4.26 31.6-0.18 31.42 0 31.42-43.32 0-30.71 0-31.06-4.61-36.39l-4.62-5.5h-21.66c-20.59 0-22.19 0.17-26.45 4.26zm40.3 8.16l4.62 1.78v28.05c0 19.52-0.71 28.75-2.13 30.18-2.67 2.66-25.92 2.84-32.31 0.35l-4.62-1.78v-27.33c0-33.2 0-33.02 17.75-33.02 6.75 0 14.2 0.71 16.69 1.77z"/>
		<path class="s0" d="m1863.97 955.78v42.6l5.86-0.53 5.68-0.53v-17.75-17.76l18.29-0.53 18.11-0.53v-5.86-6.03l-17.76 0.88-17.75 1.07-0.35-8.34c-0.18-4.44-0.36-10.3-0.36-13.14l-0.18-4.79 21.84 0.71 21.66 0.53v-6.39-6.39h-27.52-27.52z"/>
		<path class="s0" d="m1963.39 919.21v6.21h13.31 13.31v36.39 36.4h5.86 5.68l-0.53-36.4-0.53-36.21 12.96-0.53 12.96-0.53 0.53-5.86 0.53-5.68h-31.95-32.13z"/>
		<path class="s0" d="m2046.47 914.24c-0.18 0.71-0.36 20.06 0 42.78l0.53 41.36 5.68-0.53 5.68-0.53-0.53-17.04c-0.54-11.54 0-17.58 1.24-18.47 2.66-1.59 34.97-1.59 37.46 0 1.24 0.89 1.77 7.28 1.42 18.29l-0.54 17.22 5.86 0.53 5.68 0.53v-42.6-42.78h-6.21-6.21l1.06 17.75 1.24 17.93-20.23-0.53-20.24-0.54v-16.86-16.87l-5.68-0.53c-3.02-0.35-5.86 0.18-6.21 0.89z"/>
		<path class="s0" d="m2135.58 951.52c0 21.3-0.53 40.47-1.07 42.6l-1.06 4.09h28.58 28.76l-0.53-5.51-0.54-5.5-21.3-0.18-21.3-0.35v-12.43-12.43l16.86-0.53c9.23-0.35 17.58-1.24 18.47-2.13 0.88-0.89 1.06-3.37 0.53-5.68-1.07-3.9-1.78-4.08-17.04-3.73-8.88 0.18-16.51-0.17-16.87-0.88-0.35-0.71-0.89-6.39-1.24-12.79-0.53-9.23-0.18-11.53 1.95-11.71 1.42 0 11.19-0.36 21.84-0.36l18.99-0.35v-5.33-5.32h-27.51-27.52z"/>
		<path class="s0" d="m2250.08 917.43c-3.91 3.73-4.44 5.86-4.44 17.4 0 17.04 2.31 19.17 26.45 25.92 9.94 2.84 18.46 5.5 19 6.04 0.53 0.53 1.42 4.08 1.95 7.81 1.42 10.47-2.13 12.96-17.4 12.96-15.97 0-19.35-1.78-19.35-9.95 0-6.03-0.17-6.39-4.79-5.14-2.84 0.53-5.5 1.59-6.04 2.3-2.3 2.67 0.71 14.74 4.8 19.18 4.26 4.43 4.61 4.61 25.38 3.9 27.52-0.71 28.58-1.42 28.58-22.01 0-13.49-0.35-14.91-4.43-18.11-2.31-1.77-8.17-4.44-12.79-5.68-4.61-1.06-12.95-3.55-18.28-5.15l-9.76-2.84-0.54-9.05c-0.53-8.88-0.35-9.05 5.15-10.3 9.23-1.77 23.79-1.24 26.1 1.07 1.24 1.24 2.13 4.44 2.13 7.28 0 4.61 0.53 4.97 5.86 4.43 5.5-0.53 5.68-0.71 5.14-8.52-0.35-5.85-1.77-9.05-4.97-12.07-4.08-3.55-6.21-3.9-23.96-3.9-18.29 0-19.71 0.17-23.79 4.43z"/>
		<path class="s0" d="m2327.66 955.07l0.53 42.25 5.86 0.53 5.68 0.53v-18.64-18.64l18.82-0.53c10.29-0.35 19.17-0.18 19.52 0.18 0.36 0.35 0.71 9.05 0.71 19.17v18.46l5.86-0.53 5.68-0.53 0.53-42.25 0.36-42.07h-6.21-6.22v17.75 17.75h-19.52-19.53v-17.75-17.75h-6.22-6.21z"/>
		<path class="s0" d="m2416.06 955.6v42.61h27.52 27.51v-5.33-5.15l-20.77-0.53-20.94-0.53-0.54-12.96-0.53-12.78h17.93 17.75v-6.04-5.86l-17.22 0.18-17.39 0.18v-12.43c0-11.18 0.35-12.42 3.55-12.6 1.95 0 11.36-0.18 20.94-0.36l17.22-0.35v-5.33-5.32h-27.51-27.52z"/>
		<path class="s0" d="m2492.57 955.6l0.18 42.61h26.63 26.45l-0.53-5.68-0.54-5.86h-19.52-19.53l-0.53-36.93-0.36-36.74h-6.39-6.21z"/>
		<path class="s0" d="m2565.18 953.65c0 22.54-0.18 41.54-0.36 42.25-0.71 1.95 50.24 2.84 52.02 1.06 0.71-0.71 0.88-3.37 0.53-5.85-0.89-4.44-1.07-4.44-20.77-4.44h-19.88l-0.18-36.39-0.36-36.4-5.5-0.53-5.5-0.53z"/>
	</g>
</svg>