<svg version="1.2" xmlns="http://www.w3.org/2000/svg" viewBox="0 0 810 810" width="810" height="810">
	<style>
		.s0 { fill: #165DFC }
	</style>
	<g>
		<path class="s0" d="m-859.9-24.8c-9.7 6.9-42.1 26.8-56.5 34.8-42.1 23.2-84.3 40.7-119.3 49.5-14.2 3.5-39 7.5-46.8 7.5h-4.3l-0.9 6.7c-1.3 10.7-0.9 70.2 0.5 84.3 4 38.7 11.4 75.4 21.2 105 8.7 26.2 24.6 62 35.7 80.1 21.6 35.4 32.9 50.2 57.1 74.6 28.8 29.1 63.7 53.6 107.3 75.4l11.8 6 13.3-6.7c20.3-10.1 34-17.9 48.8-27.7 62.5-41.4 105.1-92.5 135.9-162.7l4.2-9.5 11.2-7.1c6.2-3.9 20.3-12.9 31.5-20 11.1-7.1 27.9-17.6 37.2-23.3 15.3-9.3 18.9-12.1 16.1-12.1-0.5 0-4.9-2.4-9.8-5.4-4.8-2.9-17.6-10.4-28.3-16.6-27.4-15.9-90.5-52.7-112-65.3-4.7-2.7-10.1-5.8-12-6.9-1.9-1.1-6-3.5-9-5.3-20.9-12.4-39-23-48-28-10.2-5.7-44-25.2-49-28.4-1.4-0.8-3.8-2.2-5.5-3.1-1.6-0.9-5.6-3.1-8.7-4.9-3.2-1.8-5.8-3-5.8-2.7 0 0.4 2.3 5.1 5 10.6 6 11.9 18.2 39.1 17.8 39.5-0.2 0.1-3.1 0.7-6.5 1.3-7.8 1.3-13.5 4.9-16.7 10.5l-2.6 4.4v35.1c0 19.3 0.3 35.7 0.6 36.6 0.7 1.9 6.9 2.2 12.6 0.6 3.4-1 10.8-7.8 10.8-10 0-2-3.2-6-4.8-6-2.3 0-7.2-5-7.2-7.5 0-3.2 2.7-6.3 6.1-7 4.5-1 7.9 2.4 7.9 8 0 2.9 0.9 5.6 3.1 9.1 5.9 9.5 13.3 14 23.7 14.6l6.4 0.3 2.4-5.9c3-7.4 3.7-8.2 9.6-11.2 9.4-4.7 12.1-2 2.9 2.9-5.3 2.9-6.4 4.5-9 12.8-0.6 1.9-1.1 4.4-1.1 5.5 0 1.1-0.7 2.9-1.5 4.2-1.5 2-1.4 2.7 1.5 8.9 3.9 8.6 6.7 11.3 11.7 11.4 4.6 0.1 10.5 2.1 11.1 3.8 0.3 0.9-1.1 1.1-5.9 0.6-3.5-0.4-6.9-0.8-7.6-1-0.6-0.2-2.8 0.1-4.8 0.8-3.5 1-3.9 0.9-6.1-1.6-1.7-2-2.2-3.5-1.8-5.9 1.2-7.2-6.1-19.5-12.8-21.6-2.1-0.7-4.6-1.2-5.7-1.2-1.1 0-4.8-2.3-8.2-5l-6.3-5-4.5 4.4c-5.8 5.6-13.9 9-19.3 8.1l-3.9-0.7 0.3 7.8 0.3 7.9 3.6 0.6c3.8 0.6 10.9 4.5 10.9 6 0 0.5 0.6 0.9 1.4 0.9 0.7 0 1.9 0.6 2.5 1.4 0.7 0.8 2 1.2 3 0.9 1-0.3 2.2 0 2.5 0.6 0.4 0.6 2.9 1.1 5.5 1.1 5.2 0 7.3 1.5 9.1 6.6 0.6 1.6 2.9 4.2 5 5.9 6.4 4.9 9.8 10.4 10.9 17.6 0.6 3.5 1.1 6.8 1.1 7.3 0 0.5 2.7 0.6 6.1 0.3 12.3-1.1 20.5-9.4 22.9-23 0.7-4.1 1-7.9 0.6-8.5-0.3-0.6 1.3-3 3.7-5.4 2.3-2.4 4.8-6.2 5.5-8.4 1.8-5.5 2.6-21.1 1.3-26.4-0.5-2.5-0.7-4.8-0.3-5.2 0.4-0.3 3.4 1 6.7 2.9 13 7.8 23.7 14 40.5 23.5 9.6 5.4 18.1 10.5 18.8 11.2 1 1-0.4 2.3-8 6.8-5.1 3-20.5 12.4-34.3 20.9-13.7 8.4-30.8 18.8-38 23-17.1 10.3-17.9 10.9-21.9 18.7-1.8 3.7-12.9 24.9-24.6 47.2-28.8 54.6-32.3 61.6-31.9 62.7 0.2 0.6 6.9-3.1 14.9-8.2 8-5.1 33.2-20.9 56-35.2 22.8-14.2 42.7-26.7 44.3-27.7 4.4-3 3.2-0.2-4.5 10.2-15.2 20.6-40.1 46.6-57.8 60.3-7.3 5.7-28.4 20.2-36.1 24.9-4.9 2.9-26.2 15-26.6 15-0.5 0-18.1-10.3-28.3-16.5-25-15.4-49.1-34.7-66.3-53.1-3.1-3.3-5.7-6.4-5.7-6.7 0-0.4 21.4-0.7 47.5-0.7h47.5l7-13.8c6.6-12.9 18-34.5 26.3-49.4 2-3.7 3.7-6.9 3.7-7.1 0-0.3-2.2-0.7-4.8-0.9-6.9-0.7-15.4-4.9-21.6-10.8l-5.4-5.1-4.3 4.6c-2.7 2.9-7 5.9-11.8 8.3-7.1 3.5-8.2 3.7-17.2 3.7-9 0-10-0.2-16.5-3.5-5.1-2.6-8-5-11.6-9.5-4.7-5.8-5-6-11-6.8-3.3-0.4-8.5-2-11.5-3.4-5.5-2.7-15.3-12.2-15.3-14.8 0-0.7-0.5-1.5-1-1.7-1.4-0.4-4-10.3-4-14.9 0-2.8-0.9-4.5-4-7.8-2.2-2.3-5.1-6.4-6.5-9.1-2.4-4.7-2.5-5.8-2.5-21.3v-16.4l3.9-6c2.1-3.3 4.4-6.4 5-6.7 0.6-0.4 1.1-3.9 1.1-8.5 0-12.5 4.1-21.2 13.4-28.2 3.7-2.8 5.4-5 7.2-9.4 4-9.9 12.5-17.2 22.6-19.4 4.7-1 6.2-1.9 9.1-5.5 5.3-6.4 14.3-10.8 23.4-11.4 10.2-0.7 20 2.5 26.6 8.6l4.7 4.5v-45.2c0-30 0.3-45.1 1-45.1 0.6 0 2.7 1.1 4.8 2.4 8.3 5.2 37.9 21.6 56.9 31.3 34.1 17.5 54.1 26 87.3 36.9 11.3 3.7 37.5 10.4 40.8 10.4 1.2 0 2.4 0.4 2.7 1 0.3 0.5 0.1 11-0.5 23.2-1.2 26.1-2.7 22.5 13.4 31.5 5.5 3 13.4 7.6 17.5 10 4 2.4 7.5 4.3 7.7 4.1 0.1-0.2 1-8 1.8-17.5 1.6-17.5 2-63.4 0.8-80.3l-0.7-8.5-8.5-0.6c-32.2-2.3-71.3-13.8-115-33.7-27.3-12.4-60.9-30.7-88.5-48.2-14.5-9.2-21.1-13-22.2-13-0.4 0.1-2.8 1.5-5.2 3.2zm-101.1 104.7c0 0.6-0.4 1.2-0.9 1.6-4 2.4-45.6 74.5-63.2 109.6-5 9.9-9.3 17.9-9.7 17.9-1.8 0-6.3-21.8-9.3-44.5-1.6-12.5-2.2-22.6-2.3-38.4l-0.1-21.5 3-0.7c1.7-0.4 6.6-1.5 11-2.4 18.9-4.1 43.5-11.7 59.6-18.4 10.1-4.1 11.9-4.6 11.9-3.2zm152 55.2c0.9 1.6 0.8 2.6-0.6 4.7-1 1.5-2 4.3-2.3 6.2-0.5 2.8-1.3 3.9-4.4 5.3-3.5 1.8-3.9 1.8-6.2 0.3-4.7-3.1-2.5-12.6 3-12.6 1.2 0 3.4-1.4 5-3 3.4-3.6 4.1-3.7 5.5-0.9zm16 31.7c0 1.2-0.7 2.5-1.6 2.9-4.1 1.6-7.8-5.5-4.6-9 1.6-1.8 1.7-1.8 3.9 1 1.3 1.5 2.3 3.8 2.3 5.1z"/>
		<path class="s0" d="m389.6 101.1c-77.6 50.9-157.6 86.9-223.1 100.4-11.6 2.4-34.2 5.5-40.2 5.5h-5.1l-0.7 4.8c-2.3 16.7-2.5 60.7-0.4 89.7 3.7 53 11.1 91.5 27.7 144.5 10.8 34.5 39.1 92.2 61.4 125.1 42.5 62.7 111.4 121 184.6 156.1l14.3 6.8 15.2-7.8c66-34.2 113.7-70.7 154.2-117.7 28.9-33.6 47.7-64.4 74.5-122.2l3.8-8.2 11.4-7.4c14.5-9.5 82.6-52.6 94.1-59.7 4.8-2.9 9-5.6 9.2-5.9 0.2-0.4-5.1-3.8-11.7-7.6-6.6-3.9-14.8-8.6-18.1-10.6-3.4-2-21.5-12.4-40.2-23.1-18.7-10.7-39.4-22.7-46-26.5-6.6-3.9-32-18.5-56.5-32.5-24.5-14-53.7-30.9-65-37.5-11.3-6.6-31.1-17.9-44-25.3-12.9-7.3-32.9-18.8-44.5-25.5-25.3-14.7-25.5-14.8-25.5-13.6 0 0.9 5.3 12.3 26.6 56.9 2.4 5.1 4.4 9.9 4.4 10.6 0 1-1.2 1.2-4.3 0.9-2.4-0.3-7.2 0.2-10.8 1.1-5.3 1.4-7.3 2.5-11.5 6.8-8.4 8.2-8.5 8.5-8.2 54.8l0.3 39.5 3.8 0.9c8.6 2.2 22.7-6.5 22.7-13.9 0-3.6-1.7-5.5-6.4-7-3.8-1.2-7.1-7.3-6.2-11.1 0.7-2.7 5.9-6.4 9.2-6.4 3.9 0 5.9 3.6 6 10.5 0 5.9 0.3 6.7 4.4 12 2.4 3.1 6.2 7.2 8.4 8.9 5.1 4.1 15.5 7.8 18.1 6.4 0.9-0.6 3.2-0.8 5-0.5 3.1 0.5 3.2 0.4 4.4-4.6 1.3-5.9 4.8-10.8 9.9-14.2 4.5-2.9 12.9-5.8 14.8-5.1 1.9 0.7 1.8 3.6-0.2 3.6-3 0-13.6 6.3-16 9.6-1.8 2.3-2.6 5-3.1 9.9-0.4 4.6-1.3 7.7-3 10.1-2.5 3.8-2.8 5.5-1.3 7 0.5 0.5 2.5 4.1 4.3 7.9 4 8.1 5.6 9.8 10 10.1 3.2 0.2 10.7 2.6 13.9 4.4 2.4 1.3 10.4-7.4 11.5-12.6 1.9-9.4 0.5-32.5-2.4-40-0.8-2.1 1.2-1.7 5.5 1 3.8 2.4 23.6 13.6 35.2 19.9 37.7 20.5 47 25.8 47 27.2 0 1.5-1 2.2-18 12.5-63.1 38.4-82.8 50.4-90.8 55l-9.3 5.5-5.9 10.7c-3.3 5.8-6 10.8-6 11.1 0 0.2-2.3 4.6-5.1 9.8-2.8 5.2-8.7 16.4-13.1 24.9-4.4 8.5-10.6 20.4-13.8 26.5-24.9 47.5-34.2 65.6-33.7 66.2 0.5 0.4 29.5-17.2 46.2-28.2 4.4-2.9 22.4-14.4 40-25.5 17.6-11.2 37.6-23.9 44.5-28.3 16.7-10.7 19-12 19.5-11.5 1.2 1.2-23 32.9-35 45.8-2.8 3-8 8.6-11.6 12.4-21 22.5-65.9 56.1-98.8 74.1l-12.3 6.8-3.6-1.7c-11-5.3-40.7-23.9-56.4-35.3-19.5-14.2-43.6-35-55.6-47.9l-8.3-8.9 57.3-0.5 57.2-0.5 2.7-4c2.8-4.3 7.3-12.7 23.2-43.5 5.5-10.7 12.7-24.4 15.9-30.3 3.2-5.9 5.8-11.2 5.8-11.7 0-0.6-2.1-1-4.7-1-11.9 0-23-6-31.4-16.8l-2.6-3.4-2.9 3.9c-5.1 6.9-11.8 11.7-21.4 15.5-2.2 0.8-7.6 1.3-15 1.3-11.4-0.1-11.6-0.1-18.8-3.9-5.3-2.8-9-5.7-13.3-10.6l-6.1-6.7-6.3-0.5c-19.1-1.6-33.2-17.2-36-39.7-0.4-4-1.2-5.9-3-7.2-3.8-3.1-9.8-12.9-11-18.3-0.7-3.1-1.1-11.4-0.9-21.1 0.3-17.9 1.1-20.9 7.3-28.5 3.5-4.3 3.6-4.7 4.1-15 0.5-8.5 1.1-11.6 3.2-16.1 3-6.5 8.6-13.1 14.1-16.6 2.1-1.3 4.2-3.6 4.8-5.1 5.9-15.4 15.8-24.4 29.4-26.8 3.2-0.5 5.1-1.9 9.3-6.5 3.6-3.9 7.4-6.9 12-9.1 6.3-3.1 7.2-3.3 17.7-3.3 10.4 0 11.4 0.2 17.7 3.3 4.1 2 8.3 5 11 8l4.3 4.9-0.1-53.1c0-29.2 0.1-56.1 0.4-59.7l0.5-6.6 8.6 5.2c36.1 21.7 80.1 44.8 112.6 59 19.5 8.6 50.2 20 66 24.7 12.2 3.6 37.4 10.2 43.5 11.4l4.5 0.9v28.8 28.8l9 5.1c5 2.7 15.7 8.8 23.8 13.5 8.2 4.6 15 8.3 15.2 8.1 0.2-0.2 1.1-8 2-17.3 2-20.7 3.5-62.7 2.9-79-0.5-12.4-2.2-32.4-2.9-33.5-0.2-0.4-4.6-1-9.7-1.3-20.1-1.4-62.9-10.9-86.8-19.4-6.9-2.4-14.5-5.1-17-6-24.3-8.3-88-39.7-119.5-58.7-3.8-2.3-9.9-6-13.5-8.1-3.6-2.1-13.8-8.5-22.7-14.2-9-5.7-16.6-10.3-17-10.3-0.5 0-8.4 5-17.7 11.1zm-120.5 130c-7.7 11.5-17.1 27-26.8 43.7-4.8 8.4-10 17.4-11.5 20-1.6 2.6-3.1 5.4-3.5 6.2-0.4 0.8-3.6 6.7-7.2 13-3.5 6.3-12.9 24.3-20.7 40-12.7 25.3-14.3 28.1-14.9 25.5-0.4-1.7-0.9-3.6-1.1-4.3-2.7-8.6-7.7-39.8-10.3-63.7-2.2-19.7-3.2-57.7-1.6-58.1 33.8-7.5 40.9-9.5 67.5-18.5 17.1-5.8 31.7-11.3 32.7-12.3 0.4-0.3 1-0.3 1.5 0.2 0.5 0.5-1.4 4.2-4.1 8.3zm193.3 62.1c0.8 1.3 0.2 2.5-2.7 5.7-3.1 3.5-3.7 4.8-3.7 8.6 0 4-0.4 4.8-3.2 6.6-7.5 4.6-15.4-2.2-12.2-10.6 0.8-2 5.5-4.5 8.5-4.5 1.3 0 3.8-1.7 6-4.1 3.8-4.2 5.5-4.5 7.3-1.7zm17 30c2.3 4.5 2 7.4-1.1 9.8-7 5.5-14.2-4.2-7.8-10.5 3.5-3.5 7-3.3 8.9 0.7z"/>
		<path class="s0" d="m-889.2 113.3c-6.2 1.8-9 3.8-11.2 8l-1.9 3.5 6.9 6.6c3.8 3.6 7.6 6.6 8.6 6.6 2.1 0 5.8 4.6 5.8 7.2 0 2.2-1.8 6-3.4 7-3.9 2.7-9.6-2.1-9.6-8 0-10.7-14.8-19.1-25.3-14.4-5 2.2-10.7 9-10.7 12.8 0 3.4-1.8 7.4-3.3 7.4-2.4 0-10.3 6.7-12.7 10.7-2.5 4.1-3.8 14.4-2.6 20.6 1.6 8.4 13.6 16.9 23.5 16.6 5.9-0.2 7.9 1.1 8.3 5.4 0.2 2.4 0.8 3.3 2.6 3.5 1.6 0.2 2.9 1.9 4.7 5.6 1.4 2.9 2.5 6.2 2.5 7.3 0 1.1 0.7 2.6 1.5 3.3 3.7 3.1 0.7 7.9-5.3 8.6-4.7 0.5-5.1 0-2.3-3 3.7-4 3.1-8.2-2-13.9-3.8-4.4-4.2-4.6-8.2-4.1-4.5 0.6-7.1-1-7.9-5.1-0.2-1.3-2.4-3.1-6.1-4.9-3.2-1.6-7.9-4.9-10.4-7.4l-4.7-4.5-3.3 3.6-3.3 3.7v14.5c0 16.8 0.7 19.3 7.5 26.6 4.7 5 5.1 6.1 5.9 15.1 1.1 13.2 12.1 22.8 24.2 21.1 4.1-0.5 4.4-0.8 4.4-3.8 0-1.7 0.7-5.5 1.6-8.5 1.9-6.6 10.3-15.8 17.2-19 2.6-1.2 6-3.1 7.5-4.2 2.2-1.6 3.9-1.9 7-1.5 3.8 0.4 4.8 0.1 10.2-3.9 3.3-2.5 7.5-5.4 9.3-6.5l3.2-2.1v-9.4-9.4h-3.8c-5.3 0-9.8 1.5-13.3 4.4-1.7 1.4-4.3 2.6-5.8 2.6-3.8 0-8.1-4.4-8.1-8.2 0-2.2-1.5-4.4-6.8-9.7-6.7-6.6-8.4-7.6-17.9-10.1-6-1.5-7.3-3.2-7.3-9.3 0-4-0.5-5.6-2.4-7.6-1.3-1.5-2.7-4-3.1-5.8-0.5-2.7-0.2-3.7 1.9-5.8 7.2-7.2 16.9 2.7 10.6 10.8-3.1 3.9-2.6 8 1.5 11.5 3 2.7 8.8 5.2 12 5.2 0.6 0 1.5-1 2-2.2 2-4.5 10.5-7.2 10.5-3.3 0 1.4-5.5 6.5-7.1 6.5-1.4 0-1.1 2.6 0.6 4 0.8 0.7 1.5 2.1 1.5 3.1 0 1.1 0.6 1.9 1.4 1.9 0.7 0 2.1 1.2 3.1 2.6 1.4 2.2 2.2 2.5 5.1 2 2.6-0.5 4.4-0.1 7.6 1.8l4.3 2.5 5.4-1.9c8.2-3 8.1-2.7 8.1-16.3 0-11.6-0.1-12.1-2.6-14.3-1.4-1.3-3.2-2.4-4-2.4-0.8 0-3-0.7-4.9-1.5-3.5-1.4-3.5-1.4-7.3 2.4-2 2.1-4.3 4.6-5 5.5-2 2.4-3.6 1.5-4-2.3-0.9-8.6 12.2-13 22.4-7.6 2.6 1.4 4.9 2.5 5 2.5 1 0 0.3-37-0.7-40.4-2.6-9.6-15.7-15.5-27.1-12.3zm-53.2 115.3c2.2 0.9 7.1 1.8 10.9 2.1 12.4 0.7 14.2 1.9 8.5 6.1-3.8 2.9-6.6 2.8-9.4-0.3-1.3-1.4-3.4-2.5-4.8-2.5-2.8 0-8.8-1.8-10.2-3.1-0.8-0.7-0.2-3.9 0.7-3.9 0.3 0 2.2 0.7 4.3 1.6z"/>
		<path class="s0" d="m-847.2 246.6c-0.3 28.7 0 30.8 6.6 38.1 8.9 9.9 24.3 11.1 35.3 2.7 9.8-7.5 10.7-24.5 1.7-34.3-3-3.5-4.2-4-9.4-4.6-4.8-0.6-6.4-1.2-8-3.2-1.1-1.4-2-3.4-2-4.3 0-1-1.3-2.3-3.2-3.1-1.8-0.7-5.6-2.8-8.5-4.6-2.8-1.9-6.8-3.7-8.7-4l-3.6-0.6z"/>
		<path class="s0" d="m-869 235.2c-6 4-7.6 5.6-8.2 8.1-0.3 1.7-1.7 4.1-3.1 5.2-1.3 1.1-3.2 4.3-4.1 7.2-1.6 4.8-1.6 5.4-0.1 7.7 1.3 2 1.4 3.1 0.5 6.4-1.5 5.6-6.2 7-10.1 3.1-2.3-2.3-2-5.7 1-9.9 0.9-1.4 2.5-4.9 3.5-7.9 1.7-5.3 1.7-5.4-0.4-7.6-1.9-2-2.5-2.1-5.3-1.1-3.8 1.3-12.4 9.7-13.8 13.5-3.6 9.3-2.7 17.7 2.7 24.8 8.4 11.1 29.4 11.4 39.6 0.6 5.2-5.5 5.7-8.2 5.8-32.3 0.1-12.2 0-22.3-0.2-22.5-0.2-0.1-3.7 2-7.8 4.7z"/>
		<path class="s0" d="m364.9 270.4c-5.4 1.9-9.5 5.1-11.3 9-2.2 4.7-2 5.9 1.2 7.8 1.6 0.9 5 4 7.7 6.9 3 3.2 5.9 5.3 7.4 5.5 5.9 0.6 9.1 9.3 5.3 14-5.5 6.8-16 1.1-14.5-7.9 0.4-2.9 0-4.3-2.8-8.2-8.4-11.7-24.4-12.7-33.6-2.2-2.9 3.3-3.8 5.6-5.7 13.8-0.4 1.8-2.4 3.7-6.5 6.3-11.2 6.8-16 15.9-14.5 27.4 1.4 11.1 4.8 15.9 15.9 22.7 5.3 3.2 6.6 3.6 10.5 3.1 6-0.8 11 2 11 6.2 0 2 0.8 3.2 2.9 4.5 3.7 2.2 6.6 6.8 8.1 13 0.7 2.6 1.6 5 2.1 5.3 1.7 1 0.9 3.8-1.8 6.6-2.7 2.8-4.7 3.4-7.7 2.2-1.4-0.5-1.2-1.1 0.9-3.6 1.4-1.6 2.5-3.8 2.5-4.8 0-3.2-3.7-10.4-6.9-13.5-2.6-2.4-4-2.9-8.4-3-4.9 0-5.3-0.2-6.7-3.3-1.1-2.6-3-4.2-8.3-6.9-3.8-1.9-9.2-5.7-11.9-8.4-2.8-2.8-5.6-4.8-6.3-4.5-2 0.7-6.2 6.8-7 10.1-0.4 1.6-0.6 9.2-0.5 16.9 0.1 16.4 0.8 18.6 8.4 26.6 4.6 4.8 5.5 6.4 6.1 10.6 2.4 17.6 5 23.6 12.7 28.6 3.9 2.4 6.5 3.2 11.9 3.7 4.4 0.5 7.3 0.3 7.8-0.4 0.5-0.5 1.1-3.7 1.4-7.1 0.9-8.4 3.7-14.3 9.7-20.5 5.1-5.2 12.5-9.9 15.5-9.9 0.9 0 2.7-1.1 3.9-2.5 1.8-1.9 3.5-2.6 6.8-2.7 2.3-0.1 5 0.1 5.9 0.5 1.1 0.6 4.1-1.3 10.5-6.6 12.8-10.7 12.8-10.7 13.2-19.2 0.4-6.7 0.2-7.4-1.9-8.9-3.4-2.4-14.5-1.2-17.9 1.9-5.7 5.2-8.9 5.6-13.7 1.9-2.6-1.9-3.3-3.2-3.3-5.8 0-5.4-7.4-15.2-14.1-18.7-2.1-1-7-2.7-11-3.9-9.6-2.6-11.9-5-11.9-12.6 0-4-0.4-5.6-1.5-6.1-2.4-0.8-4.3-5.3-4.1-9.7 0.1-2.9 0.7-4.3 2.6-5.7 4.5-3.2 6.6-3.2 9.9-0.2 4.4 4 4.9 7.9 1.7 12.6-1.4 2.1-2.6 5-2.6 6.5 0 5.7 1 6.9 8.2 10.1 7.8 3.4 9.1 3.2 14-2 3-3.2 5-3.6 6.8-1.4 2.2 2.6 0.7 4.9-3.8 6-4.6 1.1-5.2 2.4-2.2 4 1.1 0.6 3.8 3.8 5.9 7.2l4 6.1 4.6-0.6c3.7-0.4 5.2 0 7.5 1.7 5.8 4.2 17 1.5 21-5.2 1.6-2.6 2-5 2-13.5 0-9.9-0.1-10.4-2.7-12.9-9-8.3-21.4-8.3-24.4 0.1-2.1 5.7-6.9 6.1-6.9 0.6 0-3.8 5-9.5 9.7-11.1 5.6-1.8 13.5-0.6 18.7 3 3.7 2.6 4.5 2.8 5 1.5 1.1-2.8 0.6-39.5-0.5-43.4-1.9-6.3-7.8-13.2-13.8-16.3-6.1-3-13.9-3.6-20.2-1.3zm-59.5 133.1c1.6 1.1 5.1 1.5 11.7 1.6 13.8 0.1 13.9 0.2 12.4 5.2-0.7 2.4-2 4.5-3.3 5-3.2 1.4-8.8 0-10.6-2.7-1-1.6-2.9-2.6-5.4-3.1-4.8-0.8-10.2-4-10.2-6 0-1.9 2.4-1.9 5.4 0z"/>
		<path class="s0" d="m445.3 366.3c-3.5 7.7-11.7 12.6-23.8 14.4l-6 0.8v7.4 7.5l4.6 1.2c3.9 0.9 10.7 4.9 12.9 7.5 0.4 0.5 4.4 2.7 9.2 5 0.9 0.5 3.1 0.6 4.7 0.3 6.1-1.2 12.1 2.4 12.1 7.3 0 2.5 5.9 8.8 9.2 9.9 5 1.6 10.8 14.5 10.8 23.9v3.5h5c6 0 15.1-3.8 19.9-8.3 6-5.7 10.3-18.2 10.6-31.1 0-1.3-11.2-4.6-15.5-4.6-1.9 0.1-4.3 0.7-5.3 1.4-2 1.6-5.3 1.1-7.9-1.2-1.3-1.1-1.7-2.8-1.6-6.6 0.1-2.8-0.6-7.7-1.7-11-1.5-4.9-2.8-6.6-7.6-10.6-3.6-3-7.1-5-9.5-5.4-5.4-1-11.6-4.8-15.6-9.7l-3.4-4.1z"/>
		<path class="s0" d="m393.5 407.1c-2.7 2.3-6.9 5.2-9.3 6.6-2.9 1.7-4.1 3-3.8 4 0.9 2.2-2.1 7.8-5 9.3-3.6 2-6.5 13.8-3.9 16 0.8 0.7 1.5 2.8 1.5 4.9 0 7.5-8.6 11-13 5.4-2.7-3.4-2.1-7.6 1.6-11.4 4.3-4.5 5.7-14.1 2.5-17.7-3-3.5-5.4-2.6-13.4 4.8-9 8.3-12.3 19-9.2 29.5 4.6 15.8 24.3 23.8 40.8 16.5 5.4-2.4 12-9 15-15 2.1-4.3 2.2-5.9 2.5-30.8 0.2-14.4 0-26.2-0.5-26.2-0.4 0.1-3 1.9-5.8 4.1z"/>
		<path class="s0" d="m415.4 404.3c-0.3 0.9-0.4 12.7-0.2 26.4 0.3 21.2 0.7 25.4 2.2 28.7 5 11 15.1 17.6 27.1 17.6 12.5 0 20.3-4.1 24.7-13 5.9-12 2.4-28-7.6-34.9-3.1-2.2-5.6-3.1-8.4-3.1-3.3 0-4.5-0.6-6.7-3.2-1.5-1.8-3.2-4.3-3.8-5.6-0.7-1.5-3.7-3.5-8.4-5.7-4-1.9-8.6-4.3-10.1-5.4-4.1-2.9-8-3.7-8.8-1.8z"/>
	</g>
</svg>
